<?xml version="1.0" standalone="no"?>
<!DOCTYPE svg PUBLIC "-//W3C//DTD SVG 20010904//EN"
 "http://www.w3.org/TR/2001/REC-SVG-20010904/DTD/svg10.dtd">
<svg version="1.0" xmlns="http://www.w3.org/2000/svg"
 width="512.000000pt" height="512.000000pt" viewBox="0 0 512.000000 512.000000"
 preserveAspectRatio="xMidYMid meet">
<metadata>
Created by potrace 1.11, written by Peter Selinger 2001-2013
</metadata>
<g transform="translate(0.000000,512.000000) scale(0.100000,-0.100000)"
fill="#000000" stroke="none">
<path d="M2320 5110 c-491 -47 -981 -247 -1365 -557 -129 -104 -340 -321 -433
-445 -591 -789 -687 -1820 -250 -2693 383 -765 1115 -1282 1978 -1397 123 -16
509 -16 625 0 459 65 873 233 1230 501 122 92 341 304 440 426 299 368 492
821 557 1305 21 158 15 528 -11 690 -69 429 -229 811 -484 1153 -409 549
-1042 918 -1727 1007 -115 15 -443 21 -560 10z m770 -1378 c199 -45 331 -141
404 -295 60 -126 66 -177 66 -534 0 -365 -6 -411 -72 -543 -48 -98 -123 -179
-205 -223 -125 -67 -343 -97 -705 -97 l-178 0 0 -301 0 -301 -29 -29 -29 -29
-316 0 -315 0 -28 24 -28 24 -3 1114 c-2 758 0 1125 8 1149 20 72 -3 70 705
66 599 -4 635 -5 725 -25z"/>
<path d="M2400 2890 l0 -250 168 1 c193 0 227 8 257 59 18 31 20 52 20 190 0
243 -8 250 -275 250 l-170 0 0 -250z"/>
</g>
</svg>
